
<global>
amp_veltrack=0
ampeg_release=0.35
</global>

<group>
group_label=Group_0-64
lpc_hicc1=64
lpc_locc1=0

<region>
hikey=A#5
hivel=127
lokey=A5
lovel=1
lpc=JLOIQeg048Gv7sZBlItxwQW4R0FsTSnBV6pKQRL1LcG10vxAO8+HwPxgjEAloxnApQJqQAe/BcBRrp4/bnanPjfEmT9X/cG/cOuKQERFHcAj6AhAtVQRwMNhlEC5JnPA
lpc_rms=-30.66
pitch_keycenter=A#5
sample=Piccolo_mordent_wholetone_PP_A#4.opus
</region>

<region>
hikey=A#6
hivel=127
lokey=A6
lovel=1
lpc=Zhl6Qe+GBcFpzzpBXi4UwPq3AEGgP0g/M1gbQfiXlr5g7ApBOyw4QP2TqUAca/i/LLAWwKojNMBfuhpAY57uv4QKu7864+u+u8tLwPEOk79hAPy/yLZYv/fMysCOw6dA
lpc_rms=-32.21
pitch_keycenter=A#6
sample=Piccolo_mordent_wholetone_PP_A#5.opus
</region>

<region>
hikey=C6
hivel=127
lokey=B5
lovel=1
lpc=dDE9QTMgecEMmE1B5LUbwTd/FEFy8KjAnlbPQC1UdMAlflBAxWKHv43mC0CKoIA+T3rUP/KsNj69rvm9jq3YP+2MOz8ONi8/LsyWPx77fz+KXU+/0xbYP9IUqsDsOY5A
lpc_rms=-36.89
pitch_keycenter=C6
sample=Piccolo_mordent_wholetone_PP_C5.opus
</region>

<region>
hikey=C7
hivel=127
lokey=B6
lovel=1
lpc=loO7QXuulME7yZxBXJsEwcYEc0GIm+89VKNBQZUdTr+om1RBvd3TvxL6C0CgbBnBlogIQWiMuD7wnRfAy+0bQLK89sCJyhdAnGbBwPGoCkDSIwzB5ltYQeuE68AVnYC+
lpc_rms=-31.23
pitch_keycenter=C7
sample=Piccolo_mordent_wholetone_PP_C6.opus
</region>

<region>
hikey=D6
hivel=127
lokey=C#6
lovel=1
lpc=kS/LQZg0BMKlcNJB16NdwY+yW0HRq6XAk3v7QA2DAMFjyGVBrn4xwEynL0F94PHAXWoJQZ3lx75AOS1BY2ASwFtA8T/TE2e/MtXPQGUHMj9lS4rA9DqyQH3yxT7et21A
lpc_rms=-30.82
pitch_keycenter=D6
sample=Piccolo_mordent_wholetone_PP_D5.opus
</region>

<region>
hikey=D7
hivel=127
lokey=C#7
lovel=1
lpc=zwHWQc14RME0eaZBfImsP0dFU0GknEpBgu8gQecuZUFmGPFAohThP6B2gcAdngZBHFLsP40o3T81934/LdWIvbFntj+IDzXAxKKMQAp1EUHdalXAlvmwQEThvb/GmlxA
lpc_rms=-25.93
pitch_keycenter=D7
sample=Piccolo_mordent_wholetone_PP_D6.opus
</region>

<region>
hivel=127
key=E5
lovel=1
lpc=eH5SQXSQwsHvHcRB/F6xwewCnEGIw2fBKig7QfZEKMFM9RlByQn7wBHvzkCRwm3AcqBKQKHQKb8X58m/ke99P7LKnj9QyBLA4gM+QCjhBcDS9J4/zbWyvq0fkT8RxAw/
lpc_rms=-38.28
sample=Piccolo_mordent_wholetone_PP_E4.opus
</region>

<region>
hikey=E6
hivel=127
lokey=D#6
lovel=1
lpc=9lZLQaXOcsHSkVJBVFSvwLXby0D+0IK/eTNKQLvfiz8OFZZAlcegP/nHQUBaOz1AcMf1P1YZXEBMB+o/YWo6QARBNUC/fIS/je5nvs9KlkA4P+89YMMcQNW/079R9TZA
lpc_rms=-34.35
pitch_keycenter=E6
sample=Piccolo_mordent_wholetone_PP_E5.opus
</region>

<region>
hikey=E7
hivel=127
lokey=D#7
lovel=1
lpc=sf8SQh2ln8ElJPBBJp0TwGiU20E+RWpA8WbcQajCSEA1d/Q/z6MKwWOewEFtO1rBi/lNQVy5fcETGRZBC4x2wSZfjEBxOfZAEB1uwQt0kD+KlzrAQUFdwHe8jj7Ww6HA
lpc_rms=-22.38
pitch_keycenter=E7
sample=Piccolo_mordent_wholetone_PP_E6.opus
</region>

<region>
hikey=F#5
hivel=127
lokey=F5
lovel=1
lpc=cxwFQRb9dcHDyV9B92sfwWZ2I0FJLxDBzU3sQFuavcAsxZpAC54lwEPRzD9sLXg9iP97P9/S474OHNW+TVAjPz+4VDigeuo+avUrPt+wJj8ujj6+A8WEvVKfnb1KzJk/
lpc_rms=-39.53
pitch_keycenter=F#5
sample=Piccolo_mordent_wholetone_PP_F#4.opus
</region>

<region>
hikey=F#6
hivel=127
lokey=F6
lovel=1
lpc=YN1xQTC+ScGH6UNBaU+2wP43y0D18pS/PSS0QEBEn0BFUy1AH/aCQJSSKj9KVIpA7kYnQM0LiEAdNH4/fAwvv3hmor4iOzo/uN8NQBhlQj/C2ghAGdUwPw242L8JAwnA
lpc_rms=-34.13
pitch_keycenter=F#6
sample=Piccolo_mordent_wholetone_PP_F#5.opus
</region>

<region>
hikey=F#7
hivel=127
lokey=F7
lovel=1
lpc=vmW/QUZfZsEpe7VB869+wHCsr0H3djRAHAWfQcKnccAN+zFBRBE7QQCLtEByxhdBqbmNQCOeEEE3owtAJk4KQRy4p71nJUZBVCmCvjO+A0HxIas+InT8PzDKBUFImxE/
lpc_rms=-10.31
pitch_keycenter=F#7
sample=Piccolo_mordent_wholetone_PP_F#6.opus
</region>

<region>
hikey=G#5
hivel=127
lokey=G5
lovel=1
lpc=eY5yQYK0zsH+1MtBM42HwWXkgkGNUHLBuJZ5QUcZLcF/pwhBszqNwAaNpkAHKxPApyQIQNH2Fz/UEpc+4y+pP2cDHj4pkgZAKR6Uvm79sT8LUkU9gLIHQJsW5L/dvHNA
lpc_rms=-30.48
pitch_keycenter=G#5
sample=Piccolo_mordent_wholetone_PP_G#4.opus
</region>

<region>
hikey=G#6
hivel=127
lokey=G6
lovel=1
lpc=0sUdQUqK0sB+NN1AHQsdwJRuj0A2cf++yPO8QIGcCT9iIWVA0wHqP2YEBUDRMqY/Xv/jP5DCbz9Mk4DAh+xrP9U8nz8dX5C/4Z+IPw1TU7/uw6a/WhQDwAVR4T4zB/+/
lpc_rms=-37.29
pitch_keycenter=G#6
sample=Piccolo_mordent_wholetone_PP_G#5.opus
</region>

<region>
hikey=G#7
hivel=127
lokey=G7
lovel=1
lpc=8ZhLQY9ZzMBHeU1BeyO/P+HaMEHgKm9AK5UTQSZodT9OxDhBZ108QNuiDkHcSHBAH6PkQMRVmEDH4IxAXt/1QD0EWEDNrM1AlOQhQK+41EClR6A/YqqdP7YCKkD6Vr6/
lpc_rms=-13.34
pitch_keycenter=G#7
sample=Piccolo_mordent_wholetone_PP_G#6.opus
</region>
</group>

<group>
group_label=Group_65-127
lpc_hicc1=127
lpc_locc1=65

<region>
hikey=A#5
hivel=127
lokey=A5
lovel=1
lpc=wVuPQQeH+MFUpQlCcKfhwfHnw0GpSoTBnLFPQXDmGsHdpiFBlg3TwGkM3EC0GZHAKzuXQI17U8Cf68BA6kOSwFDOzEAt77jAuo7uQAvD18CeFStBHAAnwe90KUHtz7vA
lpc_rms=-22.94
pitch_keycenter=A#5
sample=Piccolo_mordent_wholetone_FF_A#4.opus
</region>

<region>
hikey=A#6
hivel=127
lokey=A6
lovel=1
lpc=A/fWQbv2o8HcwbNBwCjCwFccXUFFIa9AVtzBQGtReEGgg8U/0Z6kQZMjN76glhNBC9vBvynawL8fZaZByqkdwYrchEHUNgnBOMAxQXuBgsAlTvI/H7wLQPQp/cCPk0FB
lpc_rms=-21.37
pitch_keycenter=A#6
sample=Piccolo_mordent_wholetone_FF_A#5.opus
</region>

<region>
hikey=C6
hivel=127
lokey=B5
lovel=1
lpc=UUSOQeX2yMHVXaZBI8EvwWxVDkGgQZPABPjgQNfKU8CR54tAbdIkvgmJNUCwzIi/XX6QQEjoV78Kwpk/4Ao0QCQiTD/7CYI/jZwDQEvOCj80aQ1AZ3ygPoOD8MCqzehA
lpc_rms=-25.64
pitch_keycenter=C6
sample=Piccolo_mordent_wholetone_FF_C5.opus
</region>

<region>
hikey=C7
hivel=127
lokey=B6
lovel=1
lpc=h4cwQttz88GprAxCn3yTwL0O3UHntXNBSx2nQag1cEETattBM14/Qb2ivEFLDFjB/KXfQXkkMkFYMIpAut1TQbGWCsFt3BBBnzTkv+9GR0CHO7HA9dpcQXdvCcERHy5A
lpc_rms=-14.79
pitch_keycenter=C7
sample=Piccolo_mordent_wholetone_FF_C6.opus
</region>

<region>
hikey=D6
hivel=127
lokey=C#6
lovel=1
lpc=HeiwQW4778FdG+BBYRiRwbiaeEHHbgnBpN4kQd/dl8CEfyFBwY8PwFtAZEBiU1lAa9DlP8xGMEDpxKc/736EQAvefj/lhFZArg2NP9lwBkClaA7BZQNGQSBftMDacKJA
lpc_rms=-25.93
pitch_keycenter=D6
sample=Piccolo_mordent_wholetone_FF_D5.opus
</region>

<region>
hikey=D7
hivel=127
lokey=C#7
lovel=1
lpc=szt8QWGb4MC7aRFB8xXVP5rgFEGefJxAJmH2QBes30Bs7pNAOuJ4QHlCNr8niwtBQxmJQPCtjkDDwlNAP+CTQLpaRkATYVNAMJ+2QPXs00AYWsy/KTZyQHn41D9LO7w/
lpc_rms=-27.01
pitch_keycenter=D7
sample=Piccolo_mordent_wholetone_FF_D6.opus
</region>

<region>
hivel=127
key=E5
lovel=1
lpc=W0FDQQzh18GwdehByTrCwRH6p0EmK4XBQYZQQRGTPsGvq01BoFQzwXZuBUHSS8vAm/HAQELSjsCpj9o/ALHxvuAZ5T8TdKa/sdzHP26vlr/i1xq+wpmnPx3K978RhgBA
lpc_rms=-31.63
sample=Piccolo_mordent_wholetone_FF_E4.opus
</region>

<region>
hikey=E6
hivel=127
lokey=D#6
lovel=1
lpc=vnlTQVDqisF8dIpBLpwAwWxE9ECGjHPADDXcQC3h9b5E77hATotGP5/DW0Ak/uk/tJmCQB6c/z+kuiBArtQmQEwFcUBqeOO/CzkTvhOhu0Dz/GG/gREhvwVWh0B73YS+
lpc_rms=-29.20
pitch_keycenter=E6
sample=Piccolo_mordent_wholetone_FF_E5.opus
</region>

<region>
hikey=E7
hivel=127
lokey=D#7
lovel=1
lpc=7/PzQT9YpsFwv/VB4h/vwKFrrEGfglhAQU+AQR6FEEFmcIbA4utMvyMVgkEqFQbB+Ql+QQJfx8DhhzBBozHMwBW3AUGhQ/tATrAUwbDGPUFxFQ/BC7GOQJkpmMDIP1w9
lpc_rms=-15.86
pitch_keycenter=E7
sample=Piccolo_mordent_wholetone_FF_E6.opus
</region>

<region>
hikey=F#5
hivel=127
lokey=F5
lovel=1
lpc=N4kFQR2KkMHgD51B6h1nwXPgNUFHFg7BSl33QDOd4cCuC9JADaB/wPX9HEDMtqm/WCwXQITLDMAFB8Y/fSBHvANUx77jyVY/2Y1lvUPWhT5FB+K9xmDDP5t2IMA3hQ5A
lpc_rms=-32.04
pitch_keycenter=F#5
sample=Piccolo_mordent_wholetone_FF_F#4.opus
</region>

<region>
hikey=F#6
hivel=127
lokey=F6
lovel=1
lpc=OdnMQWuV6sGG+/ZBYAQ3wXHFQkHiMC7ALSZwQW3jmkBNAw9BCuN0QIynSkHzHaBAWQECQVpRGUHnf71AAUJCQGeq9r9ns3FBMZ0zwGnYlUBHyKxA47GfQM0GycD/SX1A
lpc_rms=-23.57
pitch_keycenter=F#6
sample=Piccolo_mordent_wholetone_FF_F#5.opus
</region>

<region>
hikey=F#7
hivel=127
lokey=F7
lovel=1
lpc=vmW/QUZfZsEpe7VB869+wHCsr0H3djRAHAWfQcKnccAN+zFBRBE7QQCLtEByxhdBqbmNQCOeEEE3owtAJk4KQRy4p71nJUZBVCmCvjO+A0HxIas+InT8PzDKBUFImxE/
lpc_rms=-10.31
pitch_keycenter=F#7
sample=Piccolo_mordent_wholetone_FF_F#6.opus
</region>

<region>
hikey=G#5
hivel=127
lokey=G5
lovel=1
lpc=8AtJQUg+ysHHfPhBfS7TwT5Gu0FeTpvB5a6HQUjwMcEUORFBOzvNwJvwwkD3nTLAWadDQG2a5r988yBA0RRzv1j5EEDFKVS+3ArxPbuTfT/OoWU/pGCcP2eKAsCU31hA
lpc_rms=-26.07
pitch_keycenter=G#5
sample=Piccolo_mordent_wholetone_FF_G#4.opus
</region>

<region>
hikey=G#6
hivel=127
lokey=G6
lovel=1
lpc=zhfCQQOkxcFGjr9B2i1FwXbVXUHUIaK/Q1yAQLQYEkGAB7A+XuLKQB9gDj+CI49A2ATbPoTAMED1pXHBu5U7Qbdbc8BzJQLAGDNnQO3ODcF/i7tA5fUQwYZlwj879WHA
lpc_rms=-21.47
pitch_keycenter=G#6
sample=Piccolo_mordent_wholetone_FF_G#5.opus
</region>

<region>
hikey=G#7
hivel=127
lokey=G7
lovel=1
lpc=8ZhLQY9ZzMBHeU1BeyO/P+HaMEHgKm9AK5UTQSZodT9OxDhBZ108QNuiDkHcSHBAH6PkQMRVmEDH4IxAXt/1QD0EWEDNrM1AlOQhQK+41EClR6A/YqqdP7YCKkD6Vr6/
lpc_rms=-13.34
pitch_keycenter=G#7
sample=Piccolo_mordent_wholetone_FF_G#6.opus
</region>
</group>